<svg width="222.1153846153846" height="35" viewBox="0 0 1320 208" fill="none" xmlns="http://www.w3.org/2000/svg"><path d="M111.606 77.793C101.13 65.9521 86.083 60 66.465 60C58.0448 60 49.8214 61.5251 41.773 64.5965C33.7246 67.7103 26.6166 72.3068 20.4491 78.4708C14.2815 84.6137 9.31692 92.3452 5.5989 101.687C1.83713 111.007 0 121.916 0 134.392C0 145.068 1.44345 154.896 4.35225 163.877C7.23918 172.838 11.6789 180.569 17.6714 187.093C23.6421 193.596 31.2969 198.743 40.5263 202.429C49.7777 206.136 60.7786 208 73.4636 208C83.5679 208 92.5786 207.068 100.518 205.289C108.479 203.467 114.056 201.73 117.227 200.12L113.596 178.938C110.381 180.4 105.679 181.882 99.4241 183.407C93.1691 184.954 85.4269 185.716 76.2849 185.716C60.0131 185.716 48.0499 181.925 40.3951 174.32C32.7185 166.716 28.3443 155.574 27.2289 140.916H127.047C127.222 139.454 127.331 137.866 127.331 136.171V131.935C127.287 107.702 122.082 89.6338 111.606 77.793ZM27.7539 120.56C28.3007 115.667 29.4817 110.88 31.2751 106.177C33.0247 101.454 35.496 97.323 38.711 93.6796C41.8823 90.0786 45.7753 87.1132 50.3244 84.8467C54.9172 82.6014 60.1881 81.4786 66.2025 81.4786C76.8317 81.4786 85.2082 85.1432 91.2883 92.4722C97.3684 99.8224 100.321 109.185 100.124 120.581H27.7539V120.56Z" fill="#1193CA"></path><path d="M235.945 60L211.435 97.9823L224.723 117.562L262.436 60H235.945ZM243.808 167.753C236.988 157.298 230.25 147.264 223.7 137.63L210.538 159.429C211.164 160.339 211.769 161.249 212.395 162.182C215.941 167.509 219.445 172.881 222.824 178.254C226.203 183.67 229.312 188.953 232.19 194.059C235.048 199.187 237.426 203.849 239.386 208H266.691C260.454 194.947 252.84 181.517 243.808 167.753Z" fill="#1193CA"></path><path d="M211.121 127.773L198.668 147.108C195.289 151.859 191.826 156.92 188.238 162.337C184.692 167.753 181.251 173.17 177.955 178.542C174.638 183.959 171.572 189.242 168.735 194.37C165.878 199.476 163.479 204.026 161.497 208H135.82C142.078 195.102 149.524 181.983 158.16 168.597C166.837 155.211 175.41 142.447 183.983 130.304L137.947 60H166.045L186.752 91.9287L199.836 110.791L211.121 127.773Z" fill="#7A58B6"></path><path d="M562.499 99.8478C561.172 91.6738 558.559 84.6304 554.66 78.6739C550.804 72.7391 545.431 68.1087 538.604 64.8695C531.755 61.6304 522.926 60 512.116 60C506.532 60 501.306 60.6086 496.439 61.8043C491.571 63.0216 487.167 64.4129 483.205 65.9999C479.265 67.5651 475.894 69.1957 473.196 70.8696C470.499 72.5217 468.539 73.8478 467.254 74.7608C463.124 69.9565 457.982 66.2826 451.85 63.7608C445.74 61.2391 438.154 60 429.177 60C416.745 60 405.808 60.826 396.347 62.5217C386.907 64.1739 379.279 65.7608 373.505 67.2608V208H398.644V85.6304C399.36 85.4565 400.772 85.1739 402.942 84.8043C405.113 84.4347 407.494 84.1086 410.107 83.826C412.72 83.5434 415.48 83.3043 418.367 83.1303C421.254 82.9564 423.951 82.8477 426.48 82.8477C432.422 82.8477 437.311 83.8261 441.209 85.7826C445.065 87.7174 448.121 90.7391 450.375 94.8478C452.63 98.913 454.21 104.043 455.117 110.174C456.002 116.304 456.444 123.652 456.444 132.196V208H481.583V126.63C481.583 120.326 481.204 114.283 480.487 108.522C479.771 102.761 478.675 97.4564 477.242 92.6303C479.223 90.7608 482.953 88.6739 488.473 86.3478C493.973 84.0217 500.948 82.8477 509.398 82.8477C515.509 82.8477 520.503 83.8261 524.401 85.7826C528.257 87.7174 531.313 90.7391 533.567 94.8478C535.822 98.913 537.36 104.043 538.161 110.174C538.962 116.304 539.383 123.652 539.383 132.196V208H564.501V126.63C564.522 116.978 563.869 108.043 562.499 99.8478Z" fill="#1193CA"></path><path d="M701.846 92.2173C700.018 85.6211 697.001 79.8945 692.708 75.1012C688.437 70.2866 682.805 66.5749 675.814 63.9449C668.801 61.315 660.237 60 650.058 60C641.133 60 632.867 60.6786 625.259 62.036C617.63 63.4147 612.169 64.8145 608.918 66.2567L611.914 87.2117C614.995 85.9179 619.67 84.7303 625.918 83.5425C632.208 82.376 639.518 81.7821 647.87 81.7821C654.394 81.7821 659.727 82.7366 663.807 84.6242C667.909 86.5331 671.139 89.0782 673.476 92.2384C675.835 95.3986 677.493 99.0466 678.385 103.119C679.32 107.212 679.767 111.327 679.767 115.484V122.568C679.023 122.398 677.769 122.123 675.942 121.762C674.135 121.402 671.989 120.977 669.566 120.532C667.101 120.087 664.509 119.705 661.789 119.429C659.069 119.153 656.434 119.047 653.884 119.047C645.893 119.047 638.243 119.853 630.997 121.508C623.729 123.12 617.375 125.665 611.935 129.101C606.495 132.558 602.139 137.075 598.972 142.696C595.806 148.316 594.212 155.04 594.212 162.845C594.212 171.011 595.593 177.967 598.313 183.8C601.034 189.59 604.837 194.256 609.746 197.777C614.655 201.34 620.457 203.907 627.172 205.54C633.908 207.152 641.24 208 649.272 208C654.882 208 660.556 207.767 666.273 207.321C671.989 206.876 677.323 206.367 682.232 205.837C687.119 205.306 691.539 204.691 695.428 204.076C699.317 203.419 702.377 202.931 704.566 202.592V114.19C704.566 106.152 703.673 98.8559 701.846 92.2173ZM679.788 184.818C676.707 185.539 672.839 186.048 668.206 186.303C663.574 186.578 658.261 186.727 652.268 186.727C642.259 186.727 634.354 184.967 628.553 181.403C622.752 177.883 619.84 171.562 619.84 162.506C619.84 157.606 621.009 153.661 623.368 150.671C625.727 147.68 628.659 145.326 632.229 143.587C635.757 141.89 639.646 140.745 643.938 140.172C648.231 139.642 652.269 139.366 656.072 139.366C661.874 139.366 666.846 139.684 670.926 140.32C675.007 140.957 677.96 141.72 679.788 142.611V184.818Z" fill="#1193CA"></path><path d="M836.879 179.768C833.792 181.23 829.592 182.564 824.217 183.856C818.841 185.105 812.835 185.741 806.157 185.741C797.904 185.741 790.891 184.512 785.158 182.098C779.425 179.641 774.721 176.168 771.046 171.614C767.35 167.103 764.662 161.681 762.962 155.327C761.24 148.995 760.379 142.027 760.379 134.402C760.379 117.396 764.117 104.434 771.571 95.581C779.005 86.7281 789.736 82.2804 803.742 82.2804C809.307 82.2804 814.578 82.8099 819.513 83.9112C824.447 84.9914 828.794 86.4527 832.553 88.2317L838.202 66.7774C832.469 64.4477 826.463 62.711 820.164 61.6096C813.885 60.5295 807.627 60 801.306 60C791.101 60 781.798 61.8426 773.44 65.5489C765.104 69.2765 758.048 74.4442 752.315 81.0309C746.582 87.66 742.13 95.475 739.001 104.519C735.83 113.583 734.277 123.537 734.277 134.381C734.277 145.225 735.725 155.179 738.602 164.138C741.479 173.097 745.826 180.848 751.643 187.35C757.481 193.852 764.662 198.935 773.188 202.578C781.714 206.179 791.647 208 802.944 208C806.514 208 810.252 207.767 814.137 207.322C817.98 206.877 821.613 206.306 825.015 205.691C828.437 205.056 831.503 204.357 834.191 203.51C836.879 202.705 838.916 201.837 840.386 200.947L836.879 179.768Z" fill="#1193CA"></path><path d="M979.752 103.917C977.979 96.1032 974.913 89.3908 970.533 83.8007C966.194 78.2105 960.332 73.8465 953.011 70.7501C945.689 67.6536 936.532 66.0949 925.477 66.0949C920.304 66.0949 915.069 66.5937 909.833 67.5496C904.576 68.5056 899.612 69.9187 894.96 71.6851V0.799988L870.096 5.08094V207.595H894.96V92.4873C895.878 92.134 897.338 91.6976 899.403 91.1365C901.427 90.617 903.763 90.139 906.349 89.6818C908.936 89.2454 911.669 88.8713 914.526 88.4765C917.384 88.1232 920.137 87.9569 922.807 87.9569C929.399 87.9569 934.926 88.8089 939.39 90.513C943.854 92.1755 947.421 94.8979 950.091 98.6178C952.761 102.358 954.68 107.263 955.848 113.289C956.995 119.316 957.579 126.61 957.579 135.131V207.595H982.443V129.769C982.443 120.376 981.546 111.731 979.752 103.917Z" fill="#1193CA"></path><path d="M1013.92 60V208H1038.78V60H1013.92ZM1037.57 9.56673C1034.46 6.5341 1030.67 5.02856 1026.2 5.02856C1021.74 5.02856 1017.96 6.5341 1014.83 9.56673C1011.73 12.6209 1010.16 16.729 1010.16 21.8479C1010.16 27.0098 1011.73 31.0964 1014.83 34.129C1017.98 37.1832 1021.74 38.7102 1026.2 38.7102C1030.67 38.7102 1034.46 37.2047 1037.57 34.129C1040.68 31.0964 1042.24 27.0098 1042.24 21.8479C1042.24 16.729 1040.7 12.6424 1037.57 9.56673Z" fill="#1193CA"></path><path d="M1183.48 99.5652C1181.71 91.3913 1178.64 84.3696 1174.26 78.5218C1169.88 72.674 1164.06 68.1088 1156.74 64.8697C1149.42 61.6305 1140.26 60 1129.21 60C1116.9 60 1106.01 60.8262 1096.58 62.5218C1087.11 64.174 1079.54 65.7609 1073.83 67.2609V208H1098.69V85.6305C1099.61 85.4566 1101.07 85.174 1103.09 84.8044C1105.16 84.4349 1107.47 84.1087 1110.06 83.8261C1112.64 83.5435 1115.36 83.3044 1118.24 83.1305C1121.09 82.9565 1123.85 82.8478 1126.52 82.8478C1133.11 82.8478 1138.64 83.7392 1143.1 85.5218C1147.56 87.261 1151.13 90.1087 1153.8 94C1156.47 97.9131 1158.39 103.043 1159.56 109.348C1160.7 115.652 1161.29 123.283 1161.29 132.196V208H1186.15V126.609C1186.15 116.783 1185.25 107.739 1183.48 99.5652Z" fill="#1193CA"></path><path d="M1317.37 92.2173C1315.61 85.6211 1312.67 79.8945 1308.58 75.1012C1304.46 70.2866 1299.06 66.5749 1292.34 63.9449C1285.6 61.315 1277.35 60 1267.59 60C1259.01 60 1251.06 60.6786 1243.73 62.036C1236.42 63.4147 1231.19 64.8145 1228.03 66.2567L1230.93 87.2117C1233.89 85.9179 1238.38 84.7303 1244.39 83.5425C1250.41 82.376 1257.46 81.7821 1265.48 81.7821C1271.76 81.7821 1276.88 82.7366 1280.8 84.6242C1284.75 86.5331 1287.83 89.0782 1290.1 92.2384C1292.36 95.3986 1293.96 99.0466 1294.82 103.119C1295.67 107.212 1296.14 111.327 1296.14 115.484V122.568C1295.43 122.398 1294.22 122.123 1292.47 121.762C1290.71 121.402 1288.67 120.977 1286.3 120.532C1283.93 120.087 1281.46 119.705 1278.84 119.429C1276.23 119.153 1273.7 119.047 1271.24 119.047C1263.56 119.047 1256.23 119.853 1249.27 121.508C1242.28 123.12 1236.13 125.665 1230.93 129.101C1225.66 132.558 1221.51 137.075 1218.47 142.696C1215.42 148.316 1213.89 155.04 1213.89 162.845C1213.89 171.011 1215.18 177.967 1217.81 183.8C1220.43 189.59 1224.12 194.256 1228.84 197.777C1233.56 201.34 1239.14 203.907 1245.59 205.54C1252.07 207.152 1259.11 208 1266.79 208C1272.2 208 1277.68 207.767 1283.17 207.321C1288.67 206.876 1293.79 206.367 1298.49 205.837C1303.21 205.306 1307.44 204.691 1311.22 204.076C1314.96 203.419 1317.9 202.931 1320 202.592V114.19C1319.98 106.152 1319.08 98.8559 1317.37 92.2173ZM1296.14 184.818C1293.14 185.539 1289.46 186.048 1285.01 186.303C1280.56 186.578 1275.45 186.727 1269.67 186.727C1260.09 186.727 1252.49 184.967 1246.9 181.403C1241.28 177.883 1238.5 171.562 1238.5 162.506C1238.5 157.606 1239.65 153.661 1241.93 150.671C1244.18 147.68 1247.02 145.326 1250.43 143.587C1253.86 141.89 1257.6 140.745 1261.71 140.172C1265.79 139.642 1269.67 139.366 1273.37 139.366C1278.95 139.366 1283.7 139.684 1287.65 140.32C1291.57 140.957 1294.41 141.72 1296.16 142.611V184.818H1296.14Z" fill="#1193CA"></path></svg>
